<?xml version="1.0" encoding="utf-8"?>
<!-- Svg Vector Icons : http://www.onlinewebfonts.com/icon -->
<!DOCTYPE svg PUBLIC "-//W3C//DTD SVG 1.1//EN" "http://www.w3.org/Graphics/SVG/1.1/DTD/svg11.dtd">
<svg version="1.1" xmlns="http://www.w3.org/2000/svg" xmlns:xlink="http://www.w3.org/1999/xlink" x="0px" y="0px" viewBox="0 0 1000 1000" enable-background="new 0 0 1000 1000" xml:space="preserve">
<metadata> Svg Vector Icons : http://www.onlinewebfonts.com/icon </metadata>
<g><g transform="translate(0.000000,511.000000) scale(0.100000,-0.100000)"><path d="M3783.2,4468.5c-322.3-48.2-627-276.2-767.3-572.2c-105.2-221.4-120.6-361.7-120.6-1157.6c0-379.3,11-758.6,21.9-844.1c65.8-460.4,427.5-822.1,887.9-887.9c203.9-28.5,2216.5-28.5,2400.7,0c337.6,54.8,635.8,274.1,778.3,574.4c111.8,239,125,372.7,116.2,1262.8c-6.6,745.4-11,789.3-57,920.8c-118.4,331.1-333.3,545.9-664.3,666.5c-140.3,50.4-146.9,50.4-1302.3,54.8C4438.7,4486,3855.6,4479.4,3783.2,4468.5z"/><path d="M4736.9,239.4v-394.6h-1265c-708.1,0-1324.2-8.8-1396.6-21.9c-410-65.8-758.6-414.4-824.3-824.4c-13.2-72.3-21.9-206.1-21.9-298.2v-171h263.1h263.1v219.2c0,243.4,30.7,333.3,146.9,440.7c142.5,133.7,78.9,129.3,1519.3,129.3h1315.4v-394.6v-394.6H5000h263.1v394.6v394.6h1315.4c1254.1,0,1322-2.2,1398.7-41.6c43.8-24.1,107.4-70.2,138.1-105.3c107.4-114,129.4-184.2,129.4-423.1v-219.2h263.1h263.1v171c0,236.8-32.9,405.6-107.4,567.9c-129.3,274-436.3,506.4-736.6,554.7c-74.6,13.2-675.3,21.9-1396.6,21.9H5263.1v394.6V634H5000h-263.1V239.4z"/><path d="M617.4-1856.6c-153.5-41.6-243.4-98.7-350.8-219.2C111-2253.4,100-2312.6,100-3049.2c0-773.9,8.8-811.2,206.1-1010.7C512.2-4263.8,520.9-4266,1492.2-4266c971.2,0,980,2.2,1186.1,206.1c197.3,199.5,206.1,236.8,206.1,1010.7s-8.8,811.2-206.1,1010.7c-203.9,203.9-208.3,203.9-1142.2,210.5C882.7-1823.7,713.9-1828.1,617.4-1856.6z"/><path d="M4125.2-1856.6c-153.5-41.6-243.4-98.7-350.8-219.2c-155.7-177.6-166.6-236.7-166.6-973.4c0-773.9,8.8-811.2,206.1-1010.7C4020-4263.8,4028.8-4266,5000-4266c971.2,0,980,2.2,1186.1,206.1c197.3,199.5,206.1,236.8,206.1,1010.7s-8.8,811.2-206.1,1010.7c-203.9,201.7-206.1,203.9-1142.2,210.5C4388.3-1823.7,4221.7-1828.1,4125.2-1856.6z"/><path d="M7633.1-1856.6c-153.5-41.6-243.3-98.7-350.8-219.2c-155.7-177.6-166.6-236.7-166.6-973.4c0-773.9,8.8-811.2,206.1-1010.7c206.1-203.9,214.8-206.1,1186.1-206.1c971.2,0,980,2.2,1186.1,206.1c197.3,199.5,206.1,236.8,206.1,1010.7s-8.8,811.2-206.1,1010.7c-203.9,201.7-206.1,203.9-1142.2,210.5C7896.1-1823.7,7729.5-1828.1,7633.1-1856.6z"/></g></g>
</svg>
